<svg width="310" height="90" xmlns="http://www.w3.org/2000/svg" class="iconLeft">
 <!---->
 <!---->
 <!---->
 <defs>
  <linearGradient y2="0%" x2="100%" y1="0%" x1="0%" id="800636a7-5298-4088-a645-eb1af1c6d2c3" gradientTransform="rotate(25)">
   <stop stop-color=" rgb(65, 15, 248)" offset="0%"/>
   <stop stop-color=" rgb(65, 15, 248)" offset="100%"/>
  </linearGradient>
 </defs>
 <!---->
 <g>
  <title>background</title>
  <rect fill="none" id="canvas_background" height="402" width="582" y="-1" x="-1"/>
 </g>
 <g>
  <title>Layer 1</title>
  <g transform="matrix(6.0180540013045345,0,0,6.0180540013045345,104.03301555628214,-8.771314784208982) " fill="#150355" id="6265a4de-c73b-4674-b8ed-b5e72cb74dcb">
   <path id="svg_1" d="m2.73,13.75l-1.67,0l0,-9.8l1.67,0l0,3.96l3.16,0l0,-3.96l1.67,0l0,9.8l-1.67,0l0,-4.27l-3.16,0l0,4.27zm10.21,0.17l0,0l0,0q-1.46,0 -2.38,-0.93l0,0l0,0q-0.93,-0.94 -0.93,-2.98l0,0l0,-6.06l1.65,0l0,6.06l0,0q0,1.27 0.44,1.8l0,0l0,0q0.43,0.52 1.22,0.52l0,0l0,0q1.65,0 1.65,-2.32l0,0l0,-6.06l1.66,0l0,6.06l0,0q0,2.02 -0.92,2.96l0,0l0,0q-0.92,0.95 -2.39,0.95zm8.62,-5.79l1.88,-4.18l1.83,0l-2.88,5.96l0,3.84l-1.66,0l0,-3.84l-2.88,-5.96l1.85,0l1.86,4.18zm12.53,5.62l-1.95,0l-2.61,-4.92l-0.93,1.15l0,3.77l-1.66,0l0,-9.8l1.66,0l0,3.69l2.91,-3.69l1.95,0l-2.81,3.48l3.44,6.32z"/>
  </g>
  <g fill="url(#800636a7-5298-4088-a645-eb1af1c6d2c3)" transform="matrix(1.00457943889419,0,0,1.00457943889419,-4.2289719447094996,-5.023832640299176) " id="0ace234b-f38e-4de6-85eb-ffa860392804">
   <path id="svg_2" d="m27.143,94.794c-12.211,0 -22.143,-9.932 -22.143,-22.142l0,-37.154c0,-3.549 2.877,-6.427 6.428,-6.427s6.428,2.878 6.428,6.427l0,37.155c0,5.121 4.166,9.287 9.287,9.287s9.287,-4.166 9.287,-9.287a9.278,9.278 0 0 0 -5.068,-8.279a6.43,6.43 0 0 1 5.868,-11.443c7.433,3.814 12.056,11.37 12.056,19.72c-0.001,12.211 -9.932,22.143 -22.143,22.143z"/>
   <path id="svg_3" d="m65.715,79.083a6.432,6.432 0 0 1 -6.431,-6.431c0,-15.46 -11.01,-28.752 -26.177,-31.594a6.432,6.432 0 0 1 -5.139,-7.5a6.433,6.433 0 0 1 7.506,-5.136c21.246,3.981 36.668,22.584 36.668,44.23a6.43,6.43 0 0 1 -6.427,6.431z"/>
   <path id="svg_4" d="m88.572,79.083a6.432,6.432 0 0 1 -6.431,-6.431c0,-27.938 -20.892,-51.424 -48.595,-54.632a6.429,6.429 0 1 1 1.48,-12.773c34.19,3.96 59.974,32.938 59.974,67.405a6.43,6.43 0 0 1 -6.428,6.431z"/>
  </g>
 </g>
</svg>