<svg width="300" height="300" xmlns="http://www.w3.org/2000/svg" class="font">
 <!---->
 <defs>
  <!---->
  <linearGradient y2="0%" x2="100%" y1="0%" x1="0%" id="1ba93c09-7a67-45f0-ada0-8100eae7d48e" gradientTransform="rotate(25)">
   <stop stop-color="#410FF8" offset="0%"/>
   <stop stop-color="#410FF8" offset="100%"/>
  </linearGradient>
 </defs>

 <!---->
 <!---->
 <g>
  <title>background</title>
  <rect fill="none" id="canvas_background" height="851" width="1662" y="-1" x="-1"/>
 </g>
 <g>
  <title>Layer 1</title>
  <g transform="matrix(6.660611811402654,0,0,6.660611811402654,32.939751861036456,90.48743225822695) " fill="url(#1ba93c09-7a67-45f0-ada0-8100eae7d48e)" id="9503b744-c0a9-46fb-a6a3-7f0b68911f60">
   <path id="svg_2" d="m2.73,13.75l-1.67,0l0,-9.8l1.67,0l0,3.96l3.16,0l0,-3.96l1.67,0l0,9.8l-1.67,0l0,-4.27l-3.16,0l0,4.27zm10.21,0.17l0,0l0,0q-1.46,0 -2.38,-0.93l0,0l0,0q-0.93,-0.94 -0.93,-2.98l0,0l0,-6.06l1.65,0l0,6.06l0,0q0,1.27 0.44,1.8l0,0l0,0q0.43,0.52 1.22,0.52l0,0l0,0q1.65,0 1.65,-2.32l0,0l0,-6.06l1.66,0l0,6.06l0,0q0,2.02 -0.92,2.96l0,0l0,0q-0.92,0.95 -2.39,0.95zm8.62,-5.79l1.88,-4.18l1.83,0l-2.88,5.96l0,3.84l-1.66,0l0,-3.84l-2.88,-5.96l1.85,0l1.86,4.18zm12.53,5.62l-1.95,0l-2.61,-4.92l-0.93,1.15l0,3.77l-1.66,0l0,-9.8l1.66,0l0,3.69l2.91,-3.69l1.95,0l-2.81,3.48l3.44,6.32z"/>
  </g>
 </g>
</svg>